<?xml version="1.0" standalone="no"?><!DOCTYPE svg PUBLIC "-//W3C//DTD SVG 1.1//EN" "http://www.w3.org/Graphics/SVG/1.1/DTD/svg11.dtd"><svg t="1681271294093" class="icon" viewBox="0 0 1024 1024" version="1.1" xmlns="http://www.w3.org/2000/svg" p-id="5893" xmlns:xlink="http://www.w3.org/1999/xlink" width="200" height="200"><path d="M923.99 960.981H100.01A35.968 35.968 0 0 1 64 925.013V100.011a35.968 35.968 0 1 1 72.021 0v788.992H923.99a35.968 35.968 0 1 1 0 71.978zM193.535 800.853l116.65-208.81a21.248 21.248 0 0 1 27.435-8.918l111.19 51.712 118.485-170.794a21.163 21.163 0 0 1 27.008-6.827l109.483 55.808 160.298-251.179c9.302-14.592 31.915-8.021 31.915 9.302v520.106c0 21.291-17.28 38.571-38.613 38.571H211.413a19.968 19.968 0 0 1-17.92-29.013z" p-id="5894"></path></svg>