<?xml version="1.0" standalone="no"?><!DOCTYPE svg PUBLIC "-//W3C//DTD SVG 1.1//EN" "http://www.w3.org/Graphics/SVG/1.1/DTD/svg11.dtd"><svg t="1681268836566" class="icon" viewBox="0 0 1024 1024" version="1.1" xmlns="http://www.w3.org/2000/svg" p-id="2728" xmlns:xlink="http://www.w3.org/1999/xlink" width="200" height="200"><path d="M315.35038984 251.89952113a45.00023083 45.00023083 0 0 0-63.45086871 7.20086914l-179.99861164 224.9999983a45.00023083 45.00023083 0 0 0 0 56.24999957l179.99861164 224.99999832a45.00023083 45.00023083 0 0 0 70.20096113-56.24999959L164.60025227 512l157.50022999-197.10038687a45.00023083 45.00023083 0 0 0-6.75009242-63.000092z m636.74985651 232.20086744L772.10047887 259.10039027a45.00023083 45.00023083 0 0 0-70.20096113 56.24999957L859.39974773 512 701.89951774 709.10038687a45.00023083 45.00023083 0 0 0 70.20096113 56.24999959l179.99861164-224.99999832a45.00023083 45.00023083 0 0 0 0-56.24999957zM588.9498977 152.00046505a45.00023083 45.00023083 0 0 0-53.5499626 34.64970384l-134.99953665 630.00091992a45.00023083 45.00023083 0 0 0 34.64970385 55.34844614h9.45012937a45.00023083 45.00023083 0 0 0 45.00023084-35.55010144l134.99953665-629.9997641a45.00023083 45.00023083 0 0 0-35.55010146-54.44920436z" p-id="2729"></path></svg>