<?xml version="1.0" standalone="no"?><!DOCTYPE svg PUBLIC "-//W3C//DTD SVG 1.1//EN" "http://www.w3.org/Graphics/SVG/1.1/DTD/svg11.dtd"><svg t="1681267074669" class="icon" viewBox="0 0 1024 1024" version="1.1" xmlns="http://www.w3.org/2000/svg" p-id="2924" xmlns:xlink="http://www.w3.org/1999/xlink" width="200" height="200"><path d="M683.0406163 257.97404445C514.06696298 283.32032 345.08989632 339.64487111 401.41558521 201.64835555s-100.82190223-119.40977777-147.57205333-87.30396444a450.60095999 450.60095999 0 1 0 710.82211553 368.93013335c0-87.30396446-56.32455111-259.09475554-281.62503111-225.30048001z m-506.92551109 219.10414221a70.40568888 70.40568888 0 1 1 69.27928887 70.40568888 70.40568888 70.40568888 0 0 1-69.27928887-70.40568888z m184.18346666 245.57795555a70.40568888 70.40568888 0 1 1 70.40568889-70.40568887 70.40568888 70.40568888 0 0 1-70.40568889 70.40568887z m196.01066666 84.48682668a70.40568888 70.40568888 0 1 1 70.4056889-73.22168889 70.40568888 70.40568888 0 0 1-70.4056889 73.22168889z m140.81251556-225.29934222a98.56910222 98.56910222 0 1 1 98.56910222-98.56910221 98.56910222 98.56910222 0 0 1-98.56910222 98.56910221z" p-id="2925"></path></svg>