<?xml version="1.0" standalone="no"?><!DOCTYPE svg PUBLIC "-//W3C//DTD SVG 1.1//EN" "http://www.w3.org/Graphics/SVG/1.1/DTD/svg11.dtd"><svg t="1681266985910" class="icon" viewBox="0 0 1024 1024" version="1.1" xmlns="http://www.w3.org/2000/svg" p-id="2728" xmlns:xlink="http://www.w3.org/1999/xlink" width="200" height="200"><path d="M955.842 576.892c-0.496 4.459-1.487 8.916-2.478 13.87-0.99 5.945-14.365 66.378-72.817 85.698-0.99 0.494-1.982 0.99-2.972 0.99-8.421 2.973-6.44 8.916-4.954 12.384 0.496 0.99 0.496 1.486 0.496 2.477 21.3 57.461-16.843 105.511-20.805 109.97-35.17 43.591-74.8 55.48-108.483 52.507-14.367-21.795-27.74-42.105-37.648-55.975-2.972-4.458-5.448-7.925-7.926-10.898v4.955c0.496 11.887 0.991 29.72 1.487 50.03-7.926-3.962-14.862-7.925-20.807-12.384-19.813-13.375-50.03-55.975-87.678-111.951 1.487 63.901 0.496 125.325-6.439 148.111-8.421 34.181-43.096 90.157-116.905 90.157-10.898 0-22.786-1.487-35.666-3.963-5.448-0.991-65.883-14.366-85.201-71.827-0.496-0.991-0.991-2.478-1.487-3.468-2.971-8.421-8.916-6.44-12.384-4.954-0.495 0-0.99 0.496-1.98 0.496-6.441 2.477-12.881 3.963-18.825 4.954 4.955-26.75 18.824-45.078 18.824-45.078 0.495-0.991 1.486-1.982 1.981-2.972 1.487-1.982 2.478-3.963 3.963-5.945 30.712-43.096 9.908-102.54-41.114-116.409-4.458-0.99-8.421-2.477-12.88-3.963 0 0-21.3-4.955-41.61-21.796-9.907-7.926-19.32-18.823-26.255-33.684 16.348-18.329 35.667-35.17 55.977-50.032-21.3 0.991-43.096 0.496-64.397-1.98 0.495-7.43 1.486-14.862 3.467-22.788 0 0 1.487-7.43 5.945-17.832 7.43-17.834 23.777-44.583 56.966-54.49 0 0 28.73-9.412 18.823-39.628h0.496c-21.3-50.527 16.347-94.614 16.347-94.614 34.674-42.602 71.331-49.536 99.567-45.078 28.235 4.459 47.554 19.319 47.554 19.319l8.917 5.945c3.963 2.97 7.926 4.953 11.889 6.935 41.61 19.318 91.641-1.982 104.025-48.546 0.99-4.458 2.477-8.917 3.963-12.88 0 0 22.786-95.603 130.28-72.817 0 0 56.965 10.898 72.321 62.91 0 0 4.955 14.366 18.33 19.32 5.447 1.982 12.383 2.477 21.299-0.496v0.496c8.421-3.468 16.842-5.448 24.272-5.945-3.962 19.32-12.878 36.161-21.3 47.554-19.814 31.209-48.545 58.454-79.752 81.24 39.133-1.982 79.753 0.99 115.419 12.88 20.804 4.953 49.535 19.814 68.854 47.058-14.365 32.694-5.448 70.341 21.3 92.137z" p-id="2729" fill="#0097ff"></path><path d="M936.027 485.25c-19.319-27.244-48.05-42.105-68.854-47.058-36.162-11.889-76.287-14.862-115.42-12.88 30.713-22.786 59.939-50.03 79.753-81.24 8.421-11.392 16.843-27.74 21.301-47.554 7.926-36.655 0.991-83.714-50.526-124.83-4.459-3.962-52.509-41.61-109.97-20.805-0.99 0-1.982 0.496-2.477 0.496-3.963 1.486-9.411 2.971-12.384-4.954-0.496-1.486-0.99-2.478-1.486-3.468-19.814-57.46-79.753-70.836-85.202-71.827-98.576-21.3-142.663 46.07-152.57 85.698-11.889 35.666-14.862 76.284-12.88 115.913-22.786-30.712-50.526-59.937-81.733-79.752-32.694-24.272-108.98-49.04-172.386 29.226-3.963 4.458-42.106 52.508-20.805 109.97 0 0.99 0.495 1.486 0.495 2.477 1.487 3.963 2.972 9.41-4.954 12.384-1.485 0.494-2.476 0.99-3.467 1.485C85 368.346 71.626 428.284 70.635 433.734 49.83 532.31 117.199 575.9 156.828 585.808c16.347 5.45 33.684 8.917 51.517 10.899 21.3 2.476 43.096 2.97 64.396 1.98-19.814 14.861-39.133 31.704-55.974 50.033-8.917 9.906-16.843 20.308-23.778 31.207-24.272 32.693-49.04 108.979 29.226 172.385 3.963 3.467 42.6 34.18 91.641 25.759 5.945-0.991 12.385-2.478 18.824-4.955 0.495 0 0.99-0.495 1.982-0.495 3.963-1.486 9.41-2.971 12.384 4.954 0.494 1.486 0.99 2.478 1.485 3.468 19.815 57.46 79.753 70.836 85.203 71.827 12.88 2.477 24.272 3.963 35.665 3.963 73.81 0 108.483-55.976 116.905-90.157 6.935-22.786 7.925-84.21 6.44-148.111 37.151 55.976 67.864 98.576 87.679 111.951 5.448 4.459 12.383 8.422 20.804 12.384 12.384 5.944 27.244 10.403 43.591 11.394 33.685 2.476 73.314-8.917 108.483-52.51 3.964-4.457 42.107-53.003 20.807-109.968 0-0.991-0.496-1.487-0.496-2.478-1.486-3.963-2.973-9.41 4.953-12.384 0.991-0.495 1.982-0.495 2.973-0.99 58.452-19.319 71.827-79.753 72.817-85.698 0.991-4.458 1.982-9.41 2.478-13.869 4.458-39.133-5.449-69.35-20.806-91.146z m-23.281 96.595c-0.496 0-0.496 0.496 0 0 0 0.991-8.422 43.592-47.555 55.48-1.486 0.496-3.467 0.991-4.954 1.982-6.934 2.972-18.329 9.907-25.262 23.778-3.963 7.43-7.432 19.319-3.469 35.17 0 1.982 0.496 3.963 1.487 5.945 15.356 36.656-11.889 69.845-12.88 71.332 0 0-0.495 0-0.495 0.494-49.536 61.425-102.044 30.713-113.437 22.787-0.991-0.495-1.487-0.99-1.487-0.99-0.495-0.496-0.99-0.496-1.485-0.992-1.487-0.99-2.478-1.98-3.963-3.467-18.825-17.338-59.939-79.258-83.22-113.932-12.384-18.825-23.282-35.17-30.218-44.087-5.448-7.43-14.86-9.908-23.777-6.935-8.421 2.97-14.365 11.393-13.87 20.31 4.459 107.492 3.468 188.236-2.477 206.069 0 0.494-0.495 0.99-0.495 1.98-1.982 7.431-20.806 73.315-103.53 55.977h-0.495c-0.496 0-43.592-8.422-54.985-47.06-0.495-1.486-0.99-2.972-1.982-4.458-6.935-15.851-24.273-33.685-50.526-30.712l-8.917 1.486c-1.98 0-3.963 0.495-5.448 1.486-36.658 15.356-69.847-11.393-71.332-12.88l-0.495-0.495c-65.884-53.003-26.255-108.978-21.797-115.419 0.496-0.495 0.991-0.99 0.991-1.485 4.459-6.936 9.412-13.87 15.356-20.805 35.666-42.601 90.65-76.78 133.252-98.577 9.412-4.954 13.374-15.851 9.907-25.264-3.467-9.906-13.87-15.356-23.777-13.374-53.994 11.394-104.026 15.356-144.646 10.897-17.832-1.98-33.683-4.953-48.048-9.907-0.496 0-1.487-0.495-1.982-0.495-7.43-1.981-73.313-20.804-55.976-103.53v-0.495c0-0.495 8.421-43.591 47.059-54.984 1.486-0.496 2.973-0.991 4.458-1.982 6.44-2.972 18.824-9.907 25.76-23.778 3.962-7.43 7.43-19.814 3.467-35.666 0-1.98-0.496-3.962-1.487-5.943-15.356-36.658 11.889-69.847 12.88-71.332 0 0 0-0.495 0.495-0.495 53.003-65.388 108.979-26.255 115.42-21.797 0.495 0.496 0.99 0.991 1.485 0.991 29.722 18.824 59.938 51.518 88.174 94.614 10.897 16.347 21.3 34.18 31.207 53.499 4.954 9.411 15.852 13.374 25.264 9.907 9.907-3.468 15.356-13.87 13.374-23.778l-1.484-7.43c-14.86-74.799-14.86-140.682 0.495-185.264 0-0.495 0.496-1.486 0.496-1.982 0.99-2.972 18.328-73.81 103.529-55.976h0.495c0.496 0 43.592 8.422 54.985 47.06 0.496 1.486 0.991 2.972 1.982 4.458 2.972 6.44 9.908 18.824 23.777 25.759 7.43 3.963 19.32 7.43 35.17 3.467 1.983 0 4.459-0.495 6.441-1.486 36.656-15.356 69.845 11.393 71.332 12.384l0.494 0.495c46.565 37.648 40.124 76.78 31.208 98.577-3.963 8.917-7.926 14.86-9.412 16.347-0.495 0.495-0.99 0.99-0.99 1.486-25.759 41.114-78.267 83.22-148.608 119.382-9.412 4.953-13.375 15.851-9.907 25.758 3.467 9.908 13.87 15.356 23.777 13.374 77.772-16.346 146.13-16.841 192.695-0.99 0.495 0 0.99 0.496 1.486 0.496 7.925 3.467 73.809 22.29 56.47 105.015z" p-id="2730" fill="#0097ff"></path></svg>