<?xml version="1.0" standalone="no"?><!DOCTYPE svg PUBLIC "-//W3C//DTD SVG 1.1//EN" "http://www.w3.org/Graphics/SVG/1.1/DTD/svg11.dtd"><svg t="1681267148323" class="icon" viewBox="0 0 1024 1024" version="1.1" xmlns="http://www.w3.org/2000/svg" p-id="3522" xmlns:xlink="http://www.w3.org/1999/xlink" width="200" height="200"><path d="M277.629 950.302c-83.693 0-151.789-68.046-151.789-151.739V329.44c0-83.643 68.096-151.74 151.789-151.74h27.62v-13.807a96.66 96.66 0 0 1 96.552-96.557h220.73a96.671 96.671 0 0 1 96.605 96.557V177.7h27.563c83.742 0 151.788 68.097 151.788 151.739v469.124c0 83.693-68.046 151.74-151.788 151.74z m-68.99-620.859v469.12a69.03 69.03 0 0 0 68.99 68.99h469.07a68.998 68.998 0 0 0 68.99-68.99V329.44a69.02 69.02 0 0 0-68.99-68.939h-28.953c-6.805 46.693-46.693 82.749-95.216 82.749H401.801c-48.526 0-88.41-36.06-95.215-82.749h-28.957a69.051 69.051 0 0 0-68.99 68.939z m179.354-165.551v82.798a13.874 13.874 0 0 0 13.808 13.81h220.73a13.81 13.81 0 0 0 13.807-13.808v-82.8a13.842 13.842 0 0 0-13.808-13.808H401.801a13.907 13.907 0 0 0-13.808 13.808z m0 565.68a41.4 41.4 0 0 1 0-82.798h248.344a41.4 41.4 0 1 1 0 82.798z m0-165.547a41.4 41.4 0 0 1 0-82.798h248.344a41.4 41.4 0 1 1 0 82.798z" p-id="3523"></path></svg>