<?xml version="1.0" standalone="no"?><!DOCTYPE svg PUBLIC "-//W3C//DTD SVG 1.1//EN" "http://www.w3.org/Graphics/SVG/1.1/DTD/svg11.dtd"><svg t="1681195022782" class="icon" viewBox="0 0 1024 1024" version="1.1" xmlns="http://www.w3.org/2000/svg" p-id="3659" xmlns:xlink="http://www.w3.org/1999/xlink" width="200" height="200"><path d="M448.53716 359.23524799c14.574168 14.572992 38.24351999 14.572992 52.816512 0l76.28006399-76.280064c21.80774399-21.80892 50.85259201-33.901728 81.75669602-33.90172799 30.90528 0 59.948952 11.990496 81.75787198 33.90172799 33.69475201 33.695928 43.203888 85.582224 23.56586401 129.09657601-8.47543201 18.81129599 0 40.929504 18.81129599 49.40493601 4.960368 2.274384 10.128888 3.30808801 15.29623202 3.30808799 14.26488 0 27.90765601-8.164968 34.10870399-22.119384 32.144784-71.627808 16.538088-157.105368-38.965584-212.506728-35.96913599-35.96913599-83.721792-55.71064801-134.57438399-55.71064801-50.85259201 0-98.60524799 19.845-134.57438401 55.71064801l-76.278888 76.382376c-14.67648 14.47068-14.67648 38.14003201 0 52.71419999zM582.59528 657.840464c-14.572992-14.574168-38.24351999-14.574168-52.81651199 0l-83.30784001 83.30783999c-21.80892 21.80774399-50.85259201 33.901728-81.756696 33.90172802-30.90528 0-59.948952-11.990496-81.75787201-33.90172802-36.2796-36.2796-44.444568-90.956544-20.257776-136.22784 9.716112-18.19272 2.89296-40.82719199-15.29740799-50.54330399-18.19154401-9.716112-40.82719199-2.790648-50.543304 15.297408-39.792312 74.418456-26.35651199 164.548272 33.28197599 224.290248 35.96913599 35.96913599 83.721792 55.71064801 134.57438401 55.710648 50.85259201 0 98.60524799-19.845 134.573208-55.710648l83.30784-83.30783999c14.574168-14.574168 14.574168-38.24351999 0-52.81651201z" p-id="3660" fill="#ffffff"></path><path d="M230.035184 499.183952l76.383552 76.278888c7.33824 7.234752 16.847376 10.955616 26.46 10.955616s19.12176-3.61737601 26.45999999-10.955616c14.572992-14.574168 14.572992-38.24351999 0-52.816512l-76.383552-76.28006399c-45.06432-45.06432-45.06432-118.44907199 0-163.514568 33.695928-33.69475201 85.47873599-43.203888 129.09657601-23.56586401 18.81129599 8.47543201 40.929504 0 49.40493601-18.81129599 8.476608-18.81129599 0-40.929504-18.81129601-49.40493601-71.627808-32.144784-157.105368-16.538088-212.506728 38.965584-74.31496799 74.212656-74.31496799 194.936112-0.103488 269.148768z m563.929632 25.529784l-83.30783999-83.30784c-14.574168-14.574168-38.24351999-14.574168-52.81651201 0-14.574168 14.572992-14.574168 38.24351999 0 52.816512l83.30783999 83.30783999c21.80774399 21.80892 33.901728 50.85259201 33.90172802 81.75669601 0 30.90528-11.990496 59.948952-33.90172802 81.75787201-36.2796 36.2796-90.956544 44.444568-136.22784 20.257776-18.19272-9.716112-40.82719199-2.89296-50.54330399 15.29740799-9.716112 18.19154401-2.89296 40.82719199 15.297408 50.543304 28.52740799 15.296232 59.431512 22.635648 89.92283999 22.635648 49.095648 0 97.46688-19.22524799 134.26392001-56.021112 35.96913599-35.96913599 55.71064801-83.721792 55.71064801-134.574384 0.103488-50.749104-19.63920001-98.50176-55.60716001-134.46972zM889.26079999 821.974784c-37.72608 0-68.424384 30.69830399-68.42438398 68.424384s30.69830399 68.42320801 68.42438398 68.423208 68.42320801-30.697128 68.42320801-68.423208-30.697128-68.424384-68.42320801-68.424384z m0 74.72892a6.264552 6.264552 0 0 1-6.30571199-6.304536c0-3.515064 2.894136-6.305712 6.30571199-6.305712s6.30453601 2.790648 6.30453601 6.305712c0 3.4104-2.790648 6.30336001-6.30453601 6.30336z m0-694.678488c37.72608 0 68.42320801-30.69830399 68.42320801-68.424384s-30.697128-68.42320801-68.42320801-68.423208-68.424384 30.697128-68.42438398 68.423208c0.103488 37.72608 30.69830399 68.424384 68.42438398 68.424384z m0-74.72892a6.264552 6.264552 0 0 1 6.30453601 6.304536c0 3.515064-2.89296 6.305712-6.30453601 6.305712s-6.305712-2.790648-6.30571199-6.305712c0-3.4104 2.79182401-6.30336001 6.30571199-6.30336zM134.73802399 821.974784c-37.72608 0-68.42320801 30.69830399-68.42320798 68.424384s30.697128 68.42320801 68.42320798 68.423208 68.424384-30.697128 68.424384-68.423208c-0.103488-37.72608-30.69830399-68.424384-68.424384-68.424384z m0 74.72892a6.264552 6.264552 0 0 1-6.30453598-6.304536c0-3.515064 2.89296-6.305712 6.30453598-6.305712a6.264552 6.264552 0 0 1 6.305712 6.305712c0 3.4104-2.79182401 6.30336001-6.305712 6.30336z m0-694.678488c37.72608 0 68.424384-30.69830399 68.424384-68.424384s-30.69830399-68.42320801-68.424384-68.423208-68.42320801 30.800616-68.42320798 68.52669601c0 37.62376801 30.697128 68.320896 68.42320798 68.32089599z m0-74.72892a6.264552 6.264552 0 0 1 6.305712 6.304536c0 3.515064-2.894136 6.305712-6.305712 6.305712a6.264552 6.264552 0 0 1-6.30453598-6.305712c0-3.4104 2.790648-6.30336001 6.30453598-6.30336z" p-id="3661" fill="#ffffff"></path></svg>