<?xml version="1.0" standalone="no"?><!DOCTYPE svg PUBLIC "-//W3C//DTD SVG 1.1//EN" "http://www.w3.org/Graphics/SVG/1.1/DTD/svg11.dtd"><svg t="1681267092802" class="icon" viewBox="0 0 1024 1024" version="1.1" xmlns="http://www.w3.org/2000/svg" p-id="3073" xmlns:xlink="http://www.w3.org/1999/xlink" width="200" height="200"><path d="M548.00964267 960h-71.20930134c-45.22052268 0-82.00072534-36.78976001-82.00072532-81.99953067v-18.62963199a367.25128534 367.25128534 0 0 1-46.91933868-19.48023467l-13.06009601 13.060096c-15.97986133 15.98941867-36.990464 23.98054399-57.98911999 23.980544s-42.000896-7.99112533-57.99150934-23.980544l-50.35997865-50.35997867c-15.490048-15.490048-24.019968-36.07893334-24.019968-57.98912s8.52991999-42.50146133 24.019968-57.99150933l13.35039998-13.34920534a365.99808 365.99808 0 0 1-18.83989332-45.55025066H144.9984c-45.219328 0-81.99953067-36.78976001-81.99953068-81.99953067V474.49941333c0-45.22052268 36.78976001-81.99953067 81.99953068-81.99953066h17.91044266a366.87735468 366.87735468 0 0 1 19.15050668-46.240768l-13.23093334-13.22973866c-15.490048-15.490048-24.019968-36.07893334-24.019968-57.98912001 0-21.90062933 8.52991999-42.50026667 24.019968-57.99031467l50.35042133-50.35042133c15.490048-15.490048 36.07893334-24.019968 57.98912-24.019968 21.90062933 0 42.50026667 8.52991999 57.99031468 24.019968l13.18075733 13.17956267a366.29674668 366.29674668 0 0 1 46.23001599-19.17917867V141.99978667c0-45.22052268 36.78976001-82.00072534 81.99953068-82.00072535h71.21049599c45.219328 0 81.99953067 36.79095467 81.99953067 82.00072535v18.62007467a366.59541334 366.59541334 0 0 1 45.55980799 18.81002666l13.41013335-13.41013332c15.490048-15.490048 36.08012801-24.019968 57.99031466-24.01996801 21.91018667 0 42.50026667 8.52991999 57.98912 24.01996801l50.35042133 50.34922665c31.96928 31.97047467 31.96928 84.00059734 0 115.97107201l-13.00992 13.00992a367.20708267 367.20708267 0 0 1 19.52085333 46.89902932h19.40974934c45.219328 0 81.99953067 36.79095467 81.99953066 82.00072534v71.20930133c0 45.22052268-36.78976001 82.00072534-81.99953066 82.00072533h-19.34045867a366.87735468 366.87735468 0 0 1-19.15050667 46.23957334l13.23093334 13.22973867c15.490048 15.490048 24.019968 36.08012801 24.019968 57.99031466s-8.52991999 42.50026667-24.019968 57.98912l-50.35997867 50.35042134c-31.96928 31.97047467-84.00059734 31.97047467-115.96987733 0l-13.18075734-13.17956267a366.29674668 366.29674668 0 0 1-46.23001599 19.18037333v18.70011733c0.02030933 45.24919466-36.76945068 82.04014933-81.98997334 82.04014934zM340.75050668 748.05179732a40.93525332 40.93525332 0 0 1 21.48010665 6.09041068 285.31626667 285.31626667 0 0 0 83.12968534 34.52945067c18.43968 4.42026667 31.44004267 20.91025067 31.44004266 39.86961066v49.46039467h71.20930134v-49.53088c0-18.94860799 12.99080533-35.42903467 31.410176-39.868416a285.20516268 285.20516268 0 0 0 82.55982933-34.26065068c16.16981333-9.91931734 37.02033067-7.44994133 50.430464 5.96019201l34.98939733 34.98939734 50.35997867-50.34922667-35.030016-35.030016c-13.39938133-13.40057599-15.869952-34.23914666-5.96974933-50.41015467 15.69075199-25.63037867 27.20017067-53.40996266 34.19136-82.58013866 4.419072-18.43968 20.909056-31.44004267 39.868416-31.44004267h50.18077866V474.27242667h-50.22975999c-18.95099734 0-35.43022933-12.99080533-39.87080535-31.410176a285.50621867 285.50621867 0 0 0-34.58918399-83.11057067c-9.970688-16.16981333-7.52998399-37.08006401 5.910016-50.51050668l34.86993067-34.868736-50.35997867-50.35997866-35.15067733 35.14948268c-13.38026666 13.38026666-34.169856 15.86039467-50.330112 6.01992533a285.60895999 285.60895999 0 0 0-82.04014934-33.86043734c-18.43968-4.42026667-31.44004267-20.909056-31.44004265-39.86961066v-49.4592h-71.20930135v49.51893333c0 18.94980266-12.99080533 35.43022933-31.41017599 39.87080533a285.20516268 285.20516268 0 0 0-82.55982934 34.259456c-16.16981333 9.92051201-37.02033067 7.44994133-50.43046399-5.960192l-34.98939735-34.98939733-50.35997865 50.34922666 35.030016 35.030016c13.39938133 13.40057599 15.869952 34.24034134 5.96974932 50.41015467-15.68955733 25.63037867-27.20017067 53.40996266-34.19016533 82.58013867-4.42026667 18.43968-20.91025067 31.44004267-39.86961067 31.44004266H144.9984v71.21049601h48.80093867c18.94980266 0 35.42903467 12.98961067 39.86005333 31.40898133a285.34613333 285.34613333 0 0 0 33.91897599 82.01028267c9.86077867 16.160256 7.38065066 36.97015467-6.00917332 50.35042133l-35.11125334 35.11005866 50.36117335 50.35997866 34.90935466-34.91054932a41.07502933 41.07502933 0 0 1 29.02084266-11.98967468z" p-id="3074"></path><path d="M512.999936 702.71061333c-106.25962667 0-192.71048533-86.449664-192.71048533-192.71048533s86.45085867-192.70929067 192.71168-192.70929067 192.70929067 86.449664 192.70929066 192.70929067-86.45085867 192.71048533-192.71048533 192.71048533z m0-303.42024533c-61.04029867 0-110.70976 49.65990401-110.70976 110.70976s49.66946133 110.70020268 110.70976 110.70020268 110.70976-49.65990401 110.70976-110.70976001-49.66946133-110.70020268-110.70976-110.70020267z" p-id="3075"></path></svg>