<?xml version="1.0" standalone="no"?><!DOCTYPE svg PUBLIC "-//W3C//DTD SVG 1.1//EN" "http://www.w3.org/Graphics/SVG/1.1/DTD/svg11.dtd"><svg t="1681268895641" class="icon" viewBox="0 0 1024 1024" version="1.1" xmlns="http://www.w3.org/2000/svg" p-id="2758" xmlns:xlink="http://www.w3.org/1999/xlink" width="200" height="200"><path d="M512 153.04581089a179.47709507 179.47709507 0 1 0 0 358.95418911 179.47709507 179.47709507 0 0 0 0-358.95418911zM242.78435792 332.52290493a269.21564208 269.21564208 0 1 1 538.43128416 0A269.21564208 269.21564208 0 0 1 242.78435792 332.52290493z m89.73854701 448.69273715a134.60782104 134.60782104 0 0 0-134.60782105 134.60782106 44.86927403 44.86927403 0 1 1-89.73854701 0 224.34636806 224.34636806 0 0 1 224.34636806-224.34636807h358.95419014a224.34636806 224.34636806 0 0 1 224.34636807 224.34636807 44.86927403 44.86927403 0 1 1-89.73854702 0 134.60782104 134.60782104 0 0 0-134.60782105-134.60782106H332.52290493z" fill="#0D0D0D" p-id="2759"></path></svg>