<?xml version="1.0" standalone="no"?><!DOCTYPE svg PUBLIC "-//W3C//DTD SVG 1.1//EN" "http://www.w3.org/Graphics/SVG/1.1/DTD/svg11.dtd"><svg t="1681271288493" class="icon" viewBox="0 0 1024 1024" version="1.1" xmlns="http://www.w3.org/2000/svg" p-id="5741" xmlns:xlink="http://www.w3.org/1999/xlink" width="200" height="200"><path d="M478.976 739.552h66.048v125.903h-66.048z" p-id="5742"></path><path d="M247.809 844.815H776.19c18.239 0 33.024 14.786 33.024 33.024 0 18.239-14.785 33.024-33.024 33.024H247.81c-18.239 0-33.024-14.785-33.024-33.024 0-18.238 14.785-33.024 33.024-33.024z" p-id="5743"></path><path d="M750.86 316.133c7.005-16.84 26.337-24.813 43.176-17.808 16.839 7.005 24.812 26.337 17.807 43.176-46.172 110.99-111.664 174.23-196.627 184.277-34.053 4.028-62.892-4.877-86.576-24.943-16.44-13.927-27.74-29.645-43.203-56.488l-7.84-13.758c-10.55-18.453-16.912-27.689-23.412-33.551-5.418-4.888-9.71-6.294-17.082-5.176-43.918 6.658-97.244 55.352-156.223 148.62-9.748 15.415-30.147 20.01-45.562 10.261-15.415-9.748-20.01-30.146-10.26-45.561C293.33 397.215 359.46 336.83 427.203 326.56c27.56-4.177 51.523 3.665 71.223 21.436 12.866 11.607 21.926 24.509 35.05 47.275l8.222 14.419c24.144 42.184 37.854 53.798 65.759 50.498 57.684-6.822 105.535-53.027 143.402-144.056z" p-id="5744"></path><path d="M924.8 107.969H99.2c-18.238 0-33.023 14.785-33.023 33.024v598.559c0 18.238 14.785 33.023 33.024 33.023h825.598c18.239 0 33.024-14.785 33.024-33.023v-598.56c0-18.238-14.785-33.023-33.024-33.023z m-33.025 66.048v532.51h-759.55v-532.51h759.55z" p-id="5745"></path></svg>